<svg width="200" height="200" viewBox="0 0 200 200" fill="none" xmlns="http://www.w3.org/2000/svg">
<path d="M0 0H200V200H0V0Z" fill="#F5DE19"/>
<path d="M134.35 156.25C136.054 159.712 138.701 162.621 141.987 164.643C145.273 166.665 149.063 167.717 152.921 167.679C160.707 167.679 165.685 163.786 165.685 158.393C165.685 151.964 160.571 149.664 152 145.914L147.3 143.9C133.728 138.122 124.728 130.886 124.728 115.586C124.728 101.493 135.443 90.7573 152.25 90.7573C157.69 90.3644 163.126 91.5821 167.88 94.2585C172.633 96.9349 176.493 100.952 178.978 105.807L164.285 115.2C163.328 112.792 161.662 110.733 159.507 109.294C157.353 107.855 154.812 107.105 152.221 107.143C151.091 107.03 149.949 107.153 148.869 107.506C147.79 107.858 146.795 108.432 145.949 109.19C145.103 109.948 144.424 110.874 143.956 111.908C143.487 112.943 143.239 114.064 143.228 115.2C143.228 120.836 146.721 123.122 154.785 126.629L159.485 128.643C175.457 135.493 184.485 142.472 184.485 158.164C184.485 175.086 171.193 184.357 153.343 184.357C146.388 184.8 139.453 183.221 133.375 179.811C127.298 176.4 122.338 171.303 119.093 165.136L134.35 156.25ZM67.9568 157.879C70.9068 163.114 73.5925 167.543 80.0497 167.543C86.2211 167.543 90.1211 165.129 90.1211 155.736V91.8288H108.914V155.986C108.914 175.443 97.4854 184.3 80.8497 184.3C74.9693 184.622 69.1293 183.156 64.0974 180.096C59.0655 177.037 55.0772 172.526 52.6568 167.157L67.9568 157.879Z" fill="black"/>
</svg>
