<?xml version="1.0" encoding="utf-8"?>
<svg viewBox="0 0 500 500" xmlns="http://www.w3.org/2000/svg">
  <path d="M 495.164 464.033 C 498.297 471.129 497.515 478.332 492.821 485.645 C 488.119 492.958 481.745 496.619 473.691 496.619 L 26.713 496.619 C 22.681 496.619 18.877 495.62 15.301 493.623 C 11.723 491.626 9.035 489.081 7.247 485.979 C 2.325 478.881 1.655 471.57 5.231 464.033 L 26.042 415.5 C 27.83 411.076 30.735 407.523 34.767 404.869 C 38.788 402.207 43.038 400.876 47.514 400.876 L 360.272 400.876 L 250.203 140.264 L 160.271 353.009 C 158.472 357.444 155.676 360.879 151.881 363.317 C 148.077 365.754 143.71 366.968 138.789 366.968 L 82.415 366.968 C 73.917 366.968 67.197 363.425 62.276 356.339 C 60.488 353.235 59.371 349.682 58.926 345.698 C 58.481 341.704 58.926 337.935 60.271 334.393 L 196.507 17.935 C 198.295 13.501 201.091 9.959 204.895 7.296 C 208.701 4.632 213.068 3.302 217.989 3.302 L 282.416 3.302 C 287.337 3.302 291.695 4.632 295.499 7.296 C 299.303 9.959 302.099 13.501 303.889 17.935 L 495.164 464.033 Z" style="fill: rgb(0, 122, 204);" transform="matrix(1, 0, 0, 1, -7.105427357601002e-15, 7.105427357601002e-15)"/>
</svg>